<svg width="47" height="32" viewBox="0 0 47 32" fill="none" xmlns="http://www.w3.org/2000/svg">
<path d="M42.4775 32H3.86159C2.83743 32 1.85522 31.5786 1.13103 30.8284C0.406845 30.0783 0 29.0609 0 28V4C0 2.93913 0.406845 1.92172 1.13103 1.17157C1.85522 0.421427 2.83743 0 3.86159 0L42.4775 0C43.5017 0 44.4839 0.421427 45.2081 1.17157C45.9323 1.92172 46.3391 2.93913 46.3391 4V28C46.3391 29.0609 45.9323 30.0783 45.2081 30.8284C44.4839 31.5786 43.5017 32 42.4775 32ZM29.0778 19.85V28H34.7543C35.7785 28 36.7607 27.5786 37.4849 26.8284C38.2091 26.0783 38.6159 25.0609 38.6159 24V4H32.9587C31.9345 4 30.9523 4.42143 30.2281 5.17157C29.5039 5.92172 29.0971 6.93913 29.0971 8V12.14H34.5516C34.6157 12.1325 34.6802 12.1288 34.7447 12.129C34.8092 12.1289 34.8736 12.1325 34.9378 12.14C36.2401 12.204 37.0809 12.934 37.0809 14C37.0867 14.4948 36.9047 14.9722 36.5741 15.3294C36.2436 15.6866 35.7908 15.8951 35.3133 15.91C36.6774 16.01 37.525 16.752 37.525 17.85C37.5272 18.1326 37.4644 18.4116 37.3416 18.6639C37.2189 18.9163 37.0398 19.1347 36.8193 19.301C36.3072 19.677 35.6907 19.8701 35.0633 19.851L29.0778 19.85ZM18.4294 18.77V28H24.135C25.1591 28 26.1413 27.5786 26.8655 26.8284C27.5897 26.0783 27.9965 25.0609 27.9965 24V4H22.291C21.2673 4.00132 20.2858 4.42318 19.5619 5.17303C18.838 5.92289 18.4307 6.93954 18.4294 8V13.27C19.7665 12.3003 21.3881 11.8438 23.0151 11.979C23.2786 11.979 23.5547 11.986 23.8357 12.001C24.857 12.0517 25.8716 12.199 26.867 12.441V14.131C25.9716 13.6312 24.985 13.3314 23.9708 13.251C23.8395 13.242 23.7082 13.237 23.5847 13.237C22.802 13.1935 22.0315 13.4522 21.4222 13.963C21.1591 14.2251 20.9533 14.5425 20.8184 14.8939C20.6835 15.2452 20.6228 15.6223 20.6402 16C20.6402 17.733 21.7253 18.767 23.5432 18.767C23.6812 18.767 23.8251 18.761 23.9699 18.749C24.9814 18.6546 25.9653 18.356 26.8661 17.87V19.56C25.8724 19.8184 24.8575 19.9794 23.8347 20.041C23.5547 20.055 23.2786 20.063 23.0141 20.063C21.3869 20.2007 19.7647 19.7431 18.4294 18.77ZM7.72318 19.54V28H13.3997C14.4239 28 15.4061 27.5786 16.1303 26.8284C16.8545 26.0783 17.2613 25.0609 17.2613 24L17.2324 4H11.5848C10.5606 4 9.57841 4.42143 8.85422 5.17157C8.13003 5.92172 7.72318 6.93913 7.72318 8V17.87C8.76049 18.4385 9.90976 18.7532 11.0828 18.79C11.35 18.8221 11.6207 18.7936 11.8762 18.7064C12.1317 18.6193 12.3658 18.4755 12.5623 18.2852C12.7588 18.0949 12.9129 17.8626 13.014 17.6044C13.1151 17.3462 13.1608 17.0683 13.1478 16.79V12.13H16.4398V16.77C16.4625 17.209 16.3843 17.6473 16.2116 18.0489C16.0389 18.4505 15.7767 18.8039 15.4464 19.08C14.3293 19.8117 13.0133 20.1485 11.6958 20.04H11.6813C10.3472 20.0404 9.01808 19.8725 7.72318 19.54ZM30.9893 16.46V18.48H33.4993C33.7224 18.4353 33.9232 18.3105 34.0662 18.1276C34.2093 17.9447 34.2854 17.7154 34.2813 17.48C34.2724 17.2483 34.1914 17.0258 34.0505 16.8456C33.9096 16.6654 33.7163 16.5371 33.4993 16.48C33.4092 16.4692 33.3182 16.4692 33.228 16.48L30.9893 16.46ZM30.9893 13.34V15.27L33.007 15.28C33.0774 15.2908 33.1489 15.2908 33.2193 15.28C33.4386 15.2507 33.6397 15.1386 33.7841 14.9651C33.9284 14.7916 34.0058 14.569 34.0013 14.34C34.0179 14.1016 33.9464 13.8656 33.8012 13.6799C33.6559 13.4942 33.4479 13.3727 33.2193 13.34H30.9893Z" fill="#333441"/>
</svg>
