<svg width="47" height="32" viewBox="0 0 47 32" fill="none" xmlns="http://www.w3.org/2000/svg">
<path d="M22.8608 22.4601L21.7409 22.1801L22.185 20.2591C21.8852 20.1951 21.5888 20.1154 21.2969 20.0201L20.8335 21.9401L19.7136 21.6401L20.177 19.7191L19.3854 19.4991L17.918 19.1201L18.4779 17.8001C18.4847 17.8001 19.2299 18.0001 19.2898 18.0001C19.3948 18.0344 19.5086 18.0243 19.6064 17.9721C19.6548 17.946 19.6976 17.9104 19.7326 17.8671C19.7675 17.8239 19.7939 17.7739 19.8101 17.7201L20.5439 14.7201L21.0652 12.5401C21.0732 12.4612 21.066 12.3815 21.0441 12.3055C21.0221 12.2295 20.9859 12.1588 20.9374 12.0974C20.8889 12.0361 20.8292 11.9853 20.7616 11.948C20.6941 11.9106 20.6201 11.8876 20.5439 11.8801C20.539 11.8631 20.0322 11.7341 19.7329 11.6601L20.0225 10.4201L21.5672 10.8201L22.2816 11.0001L22.745 9.08008L23.8648 9.38008L23.4207 11.2601C23.6766 11.3101 23.916 11.3731 24.1699 11.4391L24.3282 11.4801L24.7723 9.62008L25.8922 9.90008L25.4288 11.8201C27.1385 12.4201 27.8558 13.2641 27.6878 14.4801C27.6641 14.8892 27.5116 15.279 27.2535 15.5897C26.9954 15.9004 26.646 16.1148 26.259 16.2001C26.5092 16.3013 26.7363 16.4555 26.9257 16.6528C27.1152 16.8501 27.2628 17.0862 27.3591 17.346C27.4554 17.6058 27.4983 17.8835 27.4851 18.1614C27.4719 18.4394 27.4028 18.7114 27.2823 18.9601C27.1341 19.5097 26.8017 19.9866 26.3447 20.3053C25.8877 20.624 25.3361 20.7636 24.7887 20.6991C24.297 20.6907 23.8069 20.6375 23.3242 20.5401L22.8608 22.4601ZM22.2623 16.1201L21.6444 18.6801L21.8375 18.7331C22.4491 18.9257 23.0815 19.0389 23.72 19.0701C24.4991 19.0701 24.9634 18.7841 25.0996 18.2201C25.1397 18.0835 25.1518 17.9397 25.1352 17.798C25.1186 17.6563 25.0736 17.5197 25.003 17.3971C24.5725 16.6631 23.247 16.3521 22.5345 16.1851C22.4302 16.1611 22.3385 16.1391 22.2623 16.1201ZM23.1118 12.6201L22.5519 14.9601L22.717 15.0051C23.2024 15.156 23.7041 15.244 24.2104 15.2671C24.9065 15.2671 25.3235 14.9961 25.449 14.4611H25.4683C25.504 14.3331 25.5138 14.1988 25.4972 14.0667C25.4806 13.9346 25.4379 13.8074 25.3718 13.6931C25.0117 13.0801 24 12.8371 23.3918 12.6901C23.2827 12.6641 23.1871 12.6411 23.1118 12.6201Z" fill="#333441"/>
<path d="M42.4775 32H3.86159C2.83743 32 1.85522 31.5786 1.13103 30.8284C0.406845 30.0783 0 29.0609 0 28V4C0 2.93913 0.406845 1.92172 1.13103 1.17157C1.85522 0.421427 2.83743 0 3.86159 0L42.4775 0C43.5017 0 44.4839 0.421427 45.2081 1.17157C45.9323 1.92172 46.3391 2.93913 46.3391 4V28C46.3391 29.0609 45.9323 30.0783 45.2081 30.8284C44.4839 31.5786 43.5017 32 42.4775 32ZM23.1696 5.4C20.9111 5.40658 18.7176 6.18363 16.9283 7.611C15.4084 8.82724 14.2501 10.4623 13.5858 12.329C12.9216 14.1956 12.7785 16.2183 13.1727 18.1653C13.567 20.1123 14.4827 21.905 15.815 23.3378C17.1473 24.7707 18.8423 25.7858 20.7059 26.267C22.2028 26.6554 23.7653 26.6868 25.2757 26.3589C26.7861 26.031 28.2049 25.3523 29.4253 24.374C30.9463 23.1582 32.1057 21.5228 32.7702 19.6556C33.4348 17.7883 33.5778 15.7648 33.1827 13.8172C32.7876 11.8697 31.8704 10.0769 30.5365 8.64471C29.2025 7.21249 27.5058 6.19882 25.641 5.72C24.8328 5.50978 24.0028 5.40232 23.1696 5.4Z" fill="#333441"/>
</svg>
