<svg width="47" height="32" viewBox="0 0 47 32" fill="none" xmlns="http://www.w3.org/2000/svg">
<path d="M42.4775 0H3.86159C1.72889 0 0 1.79086 0 4V28C0 30.2091 1.72889 32 3.86159 32H42.4775C44.6102 32 46.3391 30.2091 46.3391 28V4C46.3391 1.79086 44.6102 0 42.4775 0Z" fill="#333441"/>
<path d="M22.2628 4.99907C21.2127 4.99907 20.1861 5.32164 19.3129 5.92598C18.4397 6.53033 17.7592 7.38932 17.3573 8.39431C16.9554 9.3993 16.8503 10.5052 17.0552 11.5721C17.26 12.639 17.7657 13.619 18.5083 14.3882C19.2509 15.1573 20.197 15.6812 21.2269 15.8934C22.2569 16.1056 23.3245 15.9967 24.2947 15.5804C25.265 15.1641 26.0942 14.4592 26.6777 13.5547C27.2611 12.6502 27.5725 11.5869 27.5725 10.4991C27.5753 9.77598 27.4399 9.05948 27.1741 8.39087C26.9082 7.72227 26.5172 7.11479 26.0236 6.60349C25.53 6.09219 24.9435 5.68717 24.2981 5.4118C23.6526 5.13643 22.9609 4.99616 22.2628 4.99907ZM23.0892 12.9451H21.4374V9.64507H20.2577L21.9095 7.93407H23.2079V12.9461L23.0892 12.9451Z" fill="white"/>
<path d="M34.4216 17.3463C34.0658 16.9996 33.6092 16.7847 33.1231 16.7353C32.4155 16.6133 28.6388 16.1243 28.1667 16.0023C27.2153 15.9896 26.2921 16.3374 25.5708 16.9803C24.8538 17.4812 24.1045 17.9306 23.3282 18.3253C23.4459 18.4473 24.0358 18.4473 24.0358 18.4473H24.1536C24.4482 18.447 24.7399 18.5069 25.0121 18.6236C25.2843 18.7402 25.5316 18.9113 25.7399 19.1271C25.9482 19.3429 26.1134 19.599 26.226 19.881C26.3386 20.163 26.3965 20.4652 26.3962 20.7703V21.0143C26.3965 21.3194 26.3386 21.6216 26.226 21.9036C26.1134 22.1855 25.9482 22.4417 25.7399 22.6575C25.5316 22.8732 25.2843 23.0443 25.0121 23.161C24.7399 23.2776 24.4482 23.3376 24.1536 23.3373H21.6754C19.5515 23.3373 17.5445 21.1373 17.5445 21.1373C18.8699 21.6639 20.2607 21.9932 21.6754 22.1153H24.0358C24.3484 22.1145 24.6481 21.9855 24.8691 21.7565C25.0902 21.5275 25.2148 21.2171 25.2155 20.8933C25.2206 20.5882 25.1138 20.2925 24.9167 20.0658C24.7197 19.839 24.447 19.6981 24.1536 19.6713C22.9933 19.6249 21.8774 19.1969 20.9678 18.4493C20.097 17.7478 19.1909 17.0949 18.2531 16.4933C15.7749 15.0233 11.1719 18.0793 11.1719 18.0793L14.2399 25.0473C14.8038 24.7503 15.4239 24.5854 16.0562 24.5643C16.6885 24.5432 17.3176 24.6664 17.8988 24.9253C19.315 25.5363 20.1414 26.0253 21.5576 26.5143C23.5637 27.2473 24.2723 27.1253 25.5698 26.1473C26.7495 25.2913 32.4145 20.6473 33.2409 20.0353C34.4216 18.9353 35.0114 18.0793 34.4216 17.3463Z" fill="white"/>
</svg>
